PathFileType	4	(X/Y/Z)	c:/Users/goper/Files/vsCode/490R/osim_files/C12/C12_Fast_01.trc
DataRate	CameraRate	NumFrames	NumMarkers	Units                	OrigDataRate	OrigDataStartFrame	OrigNumFrames
120.00	120.00	10	36	mm	120.0	630	1258
                Frame#	Time	LPSIS			LASIS			LTH1			LTH2			LTH3			LTH4			LLFE			LMFE			LSH1			LSH2			LSH3			LSH4			LLMAL			LMMAL			LCAL			LMTP5			LTOE			LMTP1			RPSIS			RASIS			RTH1			RTH2			RTH3			RTH4			RLFE			RMFE			RSH1			RSH2			RSH3			RSH4			RLMAL			RMMAL			RCAL			RMTP1			RTOE			RMTP5		
		X1	Y1	Z1	X2	Y2	Z2	X3	Y3	Z3	X4	Y4	Z4	X5	Y5	Z5	X6	Y6	Z6	X7	Y7	Z7	X8	Y8	Z8	X9	Y9	Z9	X10	Y10	Z10	X11	Y11	Z11	X12	Y12	Z12	X13	Y13	Z13	X14	Y14	Z14	X15	Y15	Z15	X16	Y16	Z16	X17	Y17	Z17	X18	Y18	Z18	X19	Y19	Z19	X20	Y20	Z20	X21	Y21	Z21	X22	Y22	Z22	X23	Y23	Z23	X24	Y24	Z24	X25	Y25	Z25	X26	Y26	Z26	X27	Y27	Z27	X28	Y28	Z28	X29	Y29	Z29	X30	Y30	Z30	X31	Y31	Z31	X32	Y32	Z32	X33	Y33	Z33	X34	Y34	Z34	X35	Y35	Z35	X36	Y36	Z36

630	5.24167	-2056.59058	1089.44421	357.65765	-2225.53223	1047.83362	429.31964	-2211.17505	773.45349	497.97531	-2234.11035	732.26801	498.79282	-2268.36328	798.72040	502.00949	-2283.55640	756.67194	503.11569	-2333.61255	577.75372	471.93713	-2356.13062	572.38916	348.03711	-2248.26855	507.65121	477.55658	-2229.23999	464.07263	483.08755	-2303.12769	478.98941	482.50385	-2274.97241	439.57010	483.54272	-2121.52783	188.54836	427.00909	-2153.07300	186.47470	354.83670	-2066.88818	194.46979	378.13068	-2203.27222	68.85075	466.17691	-2275.83716	77.27570	412.69739	-2245.16724	63.13169	364.72656	-2057.40552	1088.49768	244.70618	-2240.05005	1052.88220	177.91000	-2143.56836	760.48456	128.70662	-2148.85229	715.47681	139.01816	-2205.43555	758.59277	133.09238	-2202.16089	712.93475	141.84579	-2149.87305	538.12799	187.07629	-2139.58716	544.90137	319.53064	-2079.86206	444.51328	166.08011	-2078.35645	401.25433	161.67702	-2141.66699	433.93768	178.38881	-2130.07568	392.98453	170.93701	-2062.67627	113.71429	217.48761	-2072.24829	125.87852	300.67905	-1985.09338	81.95877	254.10103	-2195.51758	50.76867	302.32751	-2240.43018	69.41209	272.27579	-2207.22241	45.82045	196.22195
631	5.25000	-2068.98877	1088.92468	359.26257	-2238.38672	1047.60059	429.19516	-2227.42139	773.68420	498.50861	-2250.99854	733.46106	498.74615	-2285.12378	800.59772	504.00021	-2298.83374	758.17578	502.78699	-2350.70386	579.74042	471.21704	-2373.02173	575.53894	348.03552	-2267.85791	505.50189	477.37787	-2250.47974	461.45395	482.75967	-2323.52759	479.84610	482.34445	-2298.10449	439.06058	483.95712	-2157.37134	179.87079	430.51572	-2190.70239	178.92227	356.66882	-2103.13989	181.11250	379.98798	-2246.03394	65.33775	470.65289	-2318.83228	77.57021	417.45972	-2288.29736	60.48276	369.68097	-2069.38086	1088.47876	246.42940	-2251.78467	1052.47290	178.00941	-2151.59741	760.53748	129.29773	-2155.21899	716.16064	139.00925	-2214.84106	758.64081	134.46556	-2209.08667	712.42603	142.82443	-2152.05566	538.39880	187.54211	-2142.54590	545.07990	319.75922	-2081.56738	445.21207	166.41617	-2079.91113	401.97052	162.11333	-2143.40601	434.48306	178.62628	-2131.55884	393.39331	171.27383	-2063.08911	114.49113	217.76459	-2074.59351	125.62707	300.87534	-1985.06140	83.24664	254.31139	-2195.25952	50.60789	302.24966	-2240.74854	69.25036	272.30322	-2207.36963	45.95307	196.19829
632	5.25833	-2081.17090	1088.09729	360.87332	-2251.15625	1047.12097	429.18744	-2242.87476	773.95728	499.18777	-2266.86987	733.98151	499.40039	-2299.99414	801.35779	504.36481	-2316.39185	759.56628	505.30878	-2367.07349	580.98022	470.43066	-2384.03076	575.03735	348.54001	-2286.22070	502.93161	476.55209	-2271.39819	458.18863	482.22995	-2342.82104	480.66159	482.49591	-2319.81421	438.19897	483.94785	-2194.05469	170.84331	433.00436	-2226.94043	170.28394	359.11362	-2140.06592	167.78487	381.96384	-2289.30688	62.72264	475.09225	-2360.87256	77.76855	422.16519	-2332.84448	58.97249	374.17554	-2081.48511	1088.07800	248.33643	-2263.34692	1051.97388	178.06621	-2159.34058	760.94092	130.13646	-2162.18335	716.39783	139.78348	-2222.52368	757.87946	135.46553	-2215.97681	711.75635	143.87910	-2154.38525	538.58307	187.81696	-2145.55518	545.27032	319.90851	-2083.51123	445.86368	166.70070	-2081.54541	402.69635	162.34998	-2145.21021	434.81015	178.95360	-2133.21338	393.78027	171.58606	-2063.51709	115.23460	218.10526	-2075.26416	126.09082	301.21664	-1985.87915	84.25250	254.88577	-2195.85718	50.72390	302.44739	-2240.45166	69.25475	271.50839	-2207.39819	45.83873	196.32680
633	5.26667	-2093.42285	1086.90393	362.56223	-2264.05396	1046.23535	429.22339	-2257.97119	773.57867	499.62631	-2282.32227	733.95990	499.78339	-2314.83276	801.60638	504.69727	-2331.65332	759.85388	505.39661	-2382.78052	581.62720	469.77600	-2405.09204	577.74219	345.57477	-2304.46875	499.82385	476.04413	-2292.07739	454.14062	481.68552	-2362.39673	480.12268	482.29538	-2341.46338	436.83820	484.32126	-2231.22900	162.10640	435.53781	-2264.39624	162.49315	361.68390	-2177.52417	154.82872	384.21664	-2333.17725	61.02370	479.43900	-2404.27100	79.69602	426.37143	-2376.60449	58.00621	378.75220	-2093.54102	1087.34497	250.13718	-2275.01172	1051.13452	178.13373	-2167.74390	761.06158	131.18773	-2169.17505	716.56689	140.46320	-2230.35474	757.06085	136.54893	-2222.85693	710.94855	144.99904	-2157.13525	538.81946	187.83018	-2148.74072	545.43365	320.00449	-2085.54883	446.51694	166.81273	-2083.41772	403.27588	162.53928	-2147.30273	434.92892	179.38832	-2134.97754	394.19901	171.86613	-2064.03613	115.99445	218.50058	-2075.76904	126.62463	301.50208	-1986.21655	85.30128	255.20535	-2196.09814	50.64030	302.45422	-2240.45386	68.94033	271.67706	-2207.48291	45.77461	196.33676
634	5.27500	-2105.80029	1085.34900	364.33112	-2277.00293	1045.12549	429.32312	-2272.73535	772.43604	499.69553	-2297.52295	733.30951	499.77155	-2329.09790	801.03436	504.62921	-2346.12500	759.38385	504.93622	-2397.81421	581.44006	469.07788	-2416.83960	576.87378	345.82855	-2322.29541	495.98273	475.66428	-2312.33838	449.54718	481.56961	-2381.04614	479.14874	482.20892	-2362.55200	435.02380	484.60956	-2268.89868	153.77148	438.07568	-2301.58350	154.89459	364.61139	-2216.01709	142.07660	386.03983	-2376.90283	60.25322	483.66168	-2446.94092	82.87561	429.92148	-2420.75488	58.33255	383.18777	-2105.54761	1086.28638	251.82988	-2286.72974	1050.08313	178.19069	-2175.51270	761.02887	131.80440	-2176.81836	716.16718	141.78682	-2238.00806	756.02905	137.56689	-2229.68066	710.07361	146.00262	-2159.27881	539.34198	188.01031	-2151.95630	545.74847	320.11038	-2087.63477	447.17618	166.90198	-2085.28662	403.97546	162.67302	-2149.43872	435.31113	179.58624	-2136.84253	394.67410	172.20076	-2064.42700	116.61490	218.70631	-2076.33105	127.22359	301.80994	-1986.62573	86.34427	255.52368	-2196.44775	50.50533	302.35907	-2240.67847	68.77682	271.64392	-2207.44946	45.81538	196.20917
635	5.28333	-2117.21875	1083.84924	365.72498	-2290.06250	1043.69153	429.56174	-2287.35107	770.82654	499.64810	-2309.71362	731.74536	499.15262	-2343.30273	799.91870	504.66223	-2361.32007	758.45007	504.93359	-2411.76782	580.38800	468.22568	-2430.67529	576.50244	345.40244	-2339.64307	491.55692	475.46588	-2332.41064	444.70004	481.95160	-2399.27515	477.85785	482.33270	-2383.01196	432.74741	484.97336	-2306.84741	146.03830	440.69788	-2339.68604	148.36989	367.33093	-2255.06177	130.51854	388.60410	-2420.67749	60.56252	487.72382	-2488.56812	86.40091	433.74759	-2464.97363	59.95706	387.40811	-2117.54639	1084.89856	253.48492	-2298.10059	1048.69861	178.57201	-2183.20288	760.91742	132.28430	-2183.21606	716.23029	142.75282	-2245.42773	754.76257	138.51968	-2236.36157	709.00928	147.04222	-2161.56567	539.00775	186.66858	-2154.66455	545.82861	320.07132	-2089.84839	447.86664	167.01482	-2087.25073	404.59540	162.82426	-2151.57690	435.64343	179.90608	-2138.84399	394.99344	172.45082	-2064.96655	117.36311	218.98210	-2076.84766	127.75830	302.02994	-1987.03455	87.41757	255.88065	-2196.44019	50.45542	302.38510	-2240.90894	68.62632	271.62781	-2207.58105	45.77740	196.19206
636	5.29167	-2130.73657	1081.44897	367.92746	-2303.27539	1041.98987	429.96008	-2302.92944	767.74622	499.51929	-2326.22876	729.64594	498.79572	-2357.55054	798.11969	504.64514	-2375.06445	756.63049	504.15613	-2425.67969	578.83484	467.51569	-2444.35327	574.77899	344.83530	-2356.73853	486.54327	475.59418	-2352.25928	439.39255	482.41663	-2416.86133	475.94891	482.49289	-2403.63403	430.21033	485.52036	-2345.65552	138.97485	443.66022	-2378.15967	142.56682	370.01825	-2294.75830	119.75939	391.34875	-2464.39600	62.00196	491.48898	-2530.53662	91.28352	437.32828	-2509.01587	63.22468	391.69888	-2129.57983	1083.17725	255.17259	-2310.19556	1047.24365	178.43642	-2190.77759	760.66229	132.84392	-2190.10449	716.03625	143.27478	-2252.96069	753.42999	139.33553	-2243.07397	708.02679	148.09369	-2163.57275	539.48212	186.81569	-2158.10376	545.85596	320.13931	-2092.06226	448.42252	167.13112	-2089.26904	405.33881	162.98891	-2153.85840	436.02347	180.06445	-2140.83813	395.28928	172.74739	-2065.50903	118.07027	219.31381	-2077.40796	128.35672	302.32901	-1987.27686	88.41434	256.16684	-2196.51318	50.41974	302.38644	-2241.34106	68.38766	271.63354	-2207.65186	45.75079	196.21498
637	5.30000	-2143.45483	1079.10156	369.76620	-2316.62549	1039.94788	430.48395	-2316.56396	765.13342	498.84647	-2341.02075	727.65857	498.20776	-2371.41992	795.65826	504.52017	-2389.10107	754.22211	503.53528	-2438.49268	576.51276	466.71317	-2458.35938	573.50360	344.31015	-2372.80615	479.98926	474.94577	-2372.06250	433.59531	482.98566	-2433.52100	473.38947	482.52072	-2423.82178	427.50769	486.10107	-2385.04736	132.47438	445.91745	-2416.81494	137.96510	372.72906	-2334.90063	109.80134	394.22461	-2508.08105	64.81541	494.92813	-2572.47095	97.56157	440.62802	-2552.74585	67.68515	395.22256	-2141.69067	1081.11902	256.96326	-2322.30664	1045.42114	178.76385	-2197.35815	760.46716	132.16727	-2196.63428	715.61487	143.80057	-2260.62427	752.00452	140.17328	-2249.74707	706.57104	148.58598	-2166.91699	539.59045	187.03333	-2162.10132	545.73309	320.30899	-2094.66772	449.06943	167.29832	-2091.53833	405.94839	163.17441	-2156.19458	436.18213	180.37607	-2142.98315	395.56479	173.04280	-2065.87842	118.78476	219.60718	-2077.92554	128.94421	302.72122	-1987.77258	89.51875	256.42099	-2196.84668	50.71434	302.31924	-2241.92627	67.74078	271.40231	-2207.74121	45.71336	196.24718
638	5.30833	-2155.26123	1076.76868	371.25214	-2330.08276	1037.60474	431.15002	-2330.06665	762.23279	498.22510	-2353.63477	724.35065	496.79883	-2385.17505	792.58484	504.34232	-2402.65552	751.19995	502.75024	-2450.72803	573.47675	466.07379	-2469.53540	570.10547	344.75067	-2389.43384	473.88098	475.31943	-2391.34985	426.61520	483.11237	-2450.60376	471.08099	482.82861	-2443.33350	424.07449	486.74658	-2423.47046	127.78903	449.15463	-2455.44556	134.40030	375.19644	-2375.27979	100.91391	397.37024	-2551.36792	68.44261	497.44836	-2614.19434	105.20283	443.04590	-2595.59351	73.68502	397.99612	-2153.92065	1078.71973	258.92728	-2335.54736	1043.47791	179.42274	-2204.75562	759.87311	132.58617	-2203.26855	715.02478	144.24924	-2267.90674	750.36566	140.67271	-2256.18848	705.06506	149.14142	-2170.32642	539.60291	187.34982	-2166.00806	545.44269	320.56943	-2097.23804	449.61209	167.60884	-2093.87354	406.44553	163.48083	-2158.78198	436.32782	180.48148	-2145.31372	395.78677	173.27693	-2066.37744	119.42638	219.95515	-2078.55518	129.48405	303.01599	-1988.05591	90.65204	256.77734	-2196.93481	50.65952	302.30783	-2242.14868	67.59786	271.35684	-2207.76758	45.58325	196.24928
639	5.31667	-2168.38867	1073.83752	373.09766	-2343.56445	1035.05237	431.87030	-2343.63135	759.29315	497.45261	-2367.24072	721.19238	495.75024	-2398.32153	788.83618	504.02893	-2416.32202	747.58105	502.39011	-2462.39502	569.83887	465.36990	-2481.45117	566.23981	344.02988	-2406.06396	467.57166	475.62766	-2411.17749	420.44806	483.81458	-2467.59009	468.53015	482.71109	-2463.25146	421.26025	487.07690	-2462.51099	124.05801	451.97925	-2493.86963	132.44461	377.40747	-2415.72266	93.36543	400.74295	-2594.78149	74.41473	499.86447	-2654.00879	114.19704	444.95074	-2637.58594	81.38993	400.02921	-2166.30322	1075.98682	261.09918	-2346.57300	1040.81152	179.42575	-2212.23682	759.01660	132.84595	-2209.08740	714.70972	143.92966	-2274.97998	748.62592	140.85144	-2262.46899	703.50006	149.41891	-2175.62109	539.63489	188.97159	-2170.34351	544.88812	320.92368	-2100.16895	450.10687	167.94835	-2096.83228	406.73471	163.37886	-2161.26929	436.26562	180.89697	-2147.61914	395.56384	173.38156	-2066.86914	120.26366	220.32640	-2079.29736	130.01285	303.33463	-1988.63171	91.59739	257.14053	-2197.00439	50.57023	302.35263	-2242.39990	67.35525	271.30261	-2207.80347	45.47153	196.22037
